<svg id="Layer_5" data-name="Layer 5" xmlns="http://www.w3.org/2000/svg" viewBox="0 0 60 60"><defs><style>.cls-1{fill:#fff;fill-rule:evenodd;}</style></defs><title>ig</title><g id="Instagram"><path class="cls-1" d="M-17-23A30,30,0,0,0-47,7,30,30,0,0,0-17,37,30,30,0,0,0,13,7,30,30,0,0,0-17-23ZM-23.6-8.9C-21.89-9-21.34-9-17-9h0c4.34,0,4.89,0,6.59.1a11.46,11.46,0,0,1,3.89.74A8,8,0,0,1-3.69-6.32,7.91,7.91,0,0,1-1.84-3.48,12,12,0,0,1-1.1.4C-1,2.11-1,2.65-1,7s0,4.89-.1,6.6a12,12,0,0,1-.74,3.88,7.87,7.87,0,0,1-1.85,2.83,7.87,7.87,0,0,1-2.83,1.85,11.45,11.45,0,0,1-3.88.74c-1.71.08-2.25.1-6.6.1s-4.89,0-6.6-.1a11.45,11.45,0,0,1-3.88-.74,7.79,7.79,0,0,1-2.83-1.85,7.87,7.87,0,0,1-1.85-2.83,12,12,0,0,1-.74-3.88C-33,11.89-33,11.35-33,7s0-4.89.1-6.6a11.45,11.45,0,0,1,.74-3.88,7.91,7.91,0,0,1,1.85-2.84,8,8,0,0,1,2.83-1.84A11.45,11.45,0,0,1-23.6-8.9Z" transform="translate(47 23)"/><path class="cls-1" d="M-18.43-6.12H-17c4.27,0,4.78,0,6.47.1a8.84,8.84,0,0,1,3,.55A5,5,0,0,1-5.72-4.28,5,5,0,0,1-4.53-2.44,9,9,0,0,1-4,.53c.07,1.69.09,2.2.09,6.47s0,4.77-.09,6.46a9,9,0,0,1-.56,3,4.91,4.91,0,0,1-1.19,1.84,4.91,4.91,0,0,1-1.84,1.19,9,9,0,0,1-3,.56c-1.69.07-2.2.09-6.47.09s-4.78,0-6.46-.09a9,9,0,0,1-3-.56,4.91,4.91,0,0,1-1.84-1.19,4.94,4.94,0,0,1-1.2-1.84,8.78,8.78,0,0,1-.55-3c-.08-1.69-.09-2.19-.09-6.47s0-4.77.09-6.46a8.78,8.78,0,0,1,.55-3,4.94,4.94,0,0,1,1.2-1.84,4.94,4.94,0,0,1,1.84-1.2,8.78,8.78,0,0,1,3-.55c1.47-.07,2-.09,5-.09Zm10,2.66a1.92,1.92,0,0,0-1.92,1.92A1.92,1.92,0,0,0-8.46.38,1.92,1.92,0,0,0-6.54-1.54,1.92,1.92,0,0,0-8.46-3.46ZM-25.21,7A8.21,8.21,0,0,1-17-1.22,8.22,8.22,0,0,1-8.78,7,8.22,8.22,0,0,1-17,15.22,8.21,8.21,0,0,1-25.21,7Z" transform="translate(47 23)"/><path id="Shape" class="cls-1" d="M-17,1.67A5.33,5.33,0,0,1-11.66,7,5.33,5.33,0,0,1-17,12.33,5.33,5.33,0,0,1-22.33,7,5.33,5.33,0,0,1-17,1.67Z" transform="translate(47 23)"/></g></svg>