<svg id="Layer_4" data-name="Layer 4" xmlns="http://www.w3.org/2000/svg" viewBox="0 0 60 60"><defs><style>.cls-1{fill:#fff;fill-rule:evenodd;}</style></defs><title>twt</title><g id="Twitter"><path class="cls-1" d="M6-23A30,30,0,1,0,36,7,30,30,0,0,0,6-23ZM5.17,2.42l-.07-1a6.07,6.07,0,0,1,4.09-6.1,7.15,7.15,0,0,1,3.68-.08,8.79,8.79,0,0,1,1.78.93l1,.7,1.13-.36a12,12,0,0,0,1.85-.72c.35-.19.67-.3.67-.23A6.19,6.19,0,0,1,17.9-2.22c-.88,1-.63,1,1.16.41,1.07-.36,1.09-.36.88,0A14.93,14.93,0,0,1,18.47-.14C17.29,1,17.23,1.15,17.23,2.13A21.61,21.61,0,0,1,15.8,8.48a18.39,18.39,0,0,1-7,8.22A17.73,17.73,0,0,1-4.95,18.27,15.76,15.76,0,0,1-9,16.4a6.59,6.59,0,0,1,1.72-.16,12,12,0,0,0,5.63-1.57L-.52,14l-1.3-.45a6.32,6.32,0,0,1-3.93-3.47c-.12-.44-.08-.47,1.09-.47l1.22,0-1-.48A6.82,6.82,0,0,1-7.34,6.38,7.72,7.72,0,0,1-8.1,3.55c0-.07.49.06,1,.23,1.45.53,1.64.4.8-.49A6.09,6.09,0,0,1-7.61-3l.35-1,1.39,1.38a17.05,17.05,0,0,0,10,4.92Z" transform="translate(24 23)"/></g></svg>